<svg width="172" height="70" viewBox="0 0 172 70" fill="none" xmlns="http://www.w3.org/2000/svg">
    <path
        d="M67.9364 5.64453L66.1434 16.6396C65.9149 15.8838 65.6073 15.1279 65.2206 14.3721C64.8514 13.6162 64.3944 12.9482 63.8495 12.3682C63.3046 11.7705 62.6718 11.2871 61.9511 10.918C61.2479 10.5488 60.4569 10.3643 59.578 10.3643C58.5761 10.3643 57.6708 10.5488 56.8622 10.918C56.0536 11.2695 55.3593 11.7617 54.7792 12.3945C54.2167 13.0098 53.786 13.7393 53.4872 14.583C53.1884 15.4268 53.0389 16.332 53.0389 17.2988C53.0389 18.3535 53.1796 19.3379 53.4608 20.252C53.7597 21.1484 54.1991 21.9395 54.7792 22.625C55.3593 23.293 56.0712 23.8203 56.9149 24.207C57.7587 24.5762 58.7343 24.7607 59.8417 24.7607C61.5995 24.7607 62.9794 24.2773 63.9813 23.3105C65.0009 22.3438 65.6337 21.0078 65.8798 19.3027L67.6727 28.1357L65.537 25.0771C65.1327 25.5342 64.6669 25.9121 64.1395 26.2109C63.6122 26.5273 63.0497 26.7822 62.452 26.9756C61.8544 27.1689 61.2391 27.3096 60.6063 27.3975C59.9911 27.4854 59.3934 27.5293 58.8134 27.5293C57.2841 27.5293 55.8602 27.2832 54.5419 26.791C53.2411 26.2988 52.0985 25.5957 51.1141 24.6816C50.1473 23.7676 49.3827 22.6777 48.8202 21.4121C48.2753 20.1289 48.0028 18.7051 48.0028 17.1406C48.0028 15.5938 48.2841 14.2227 48.8466 13.0273C49.4266 11.8145 50.2089 10.7949 51.1932 9.96875C52.1776 9.14258 53.3202 8.51855 54.621 8.09668C55.9393 7.6748 57.328 7.46387 58.787 7.46387C59.2968 7.46387 59.8241 7.5166 60.369 7.62207C60.9315 7.70996 61.4852 7.85059 62.0302 8.04395C62.5751 8.2373 63.0848 8.4834 63.5595 8.78223C64.0341 9.06348 64.4472 9.39746 64.7987 9.78418L67.9364 5.64453ZM90.1798 19.6191C90.1798 20.832 89.8722 21.8604 89.2569 22.7041C88.6593 23.5303 87.8858 24.207 86.9366 24.7344C86.005 25.2441 84.9854 25.6221 83.878 25.8682C82.7706 26.0967 81.7159 26.2109 80.7139 26.2109C79.7296 26.2109 78.7013 26.0879 77.629 25.8418C76.5743 25.5957 75.5987 25.209 74.7022 24.6816C73.8233 24.1543 73.0938 23.4775 72.5138 22.6514C71.9513 21.8076 71.67 20.7969 71.67 19.6191C71.67 18.3359 71.9776 17.2725 72.5929 16.4287C73.2081 15.585 73.9815 14.917 74.9132 14.4248C75.8624 13.9326 76.8995 13.5898 78.0245 13.3965C79.1671 13.2031 80.2657 13.1064 81.3204 13.1064C82.2872 13.1064 83.2891 13.2295 84.3263 13.4756C85.3809 13.7217 86.3389 14.1084 87.2003 14.6357C88.0792 15.1455 88.7911 15.8135 89.336 16.6396C89.8985 17.4658 90.1798 18.459 90.1798 19.6191ZM85.8292 19.5664C85.8292 18.9336 85.7061 18.3535 85.46 17.8262C85.2315 17.2988 84.9063 16.8418 84.4845 16.4551C84.0802 16.0684 83.6055 15.7695 83.0606 15.5586C82.5157 15.3477 81.9356 15.2422 81.3204 15.2422C80.6876 15.2422 80.0548 15.3389 79.422 15.5322C78.7891 15.708 78.2179 15.9717 77.7081 16.3232C77.1983 16.6748 76.7852 17.123 76.4688 17.668C76.1524 18.1953 75.9942 18.8018 75.9942 19.4873C75.9942 20.1729 76.0997 20.7969 76.3106 21.3594C76.5391 21.9219 76.8555 22.4053 77.2598 22.8096C77.6817 23.2139 78.1739 23.5303 78.7364 23.7588C79.2989 23.9697 79.9229 24.0752 80.6085 24.0752C81.3468 24.0752 82.0323 23.9961 82.6651 23.8379C83.2979 23.6621 83.8516 23.3896 84.3263 23.0205C84.8009 22.6514 85.17 22.1855 85.4337 21.623C85.6973 21.043 85.8292 20.3574 85.8292 19.5664ZM116.22 29.1904L107.097 30.4561L107.229 28.1621C106.719 28.2852 106.2 28.373 105.673 28.4258C105.146 28.4785 104.618 28.5049 104.091 28.5049C103.054 28.5049 102.008 28.3818 100.953 28.1357C99.9163 27.9072 98.9759 27.5293 98.1321 27.002C97.3059 26.4746 96.6292 25.7891 96.1018 24.9453C95.5745 24.1016 95.3108 23.0732 95.3108 21.8604C95.3108 20.876 95.5218 19.9971 95.9436 19.2236C96.3655 18.4326 96.9192 17.7646 97.6048 17.2197C98.2903 16.6572 99.0638 16.2266 99.9251 15.9277C100.804 15.6289 101.7 15.4795 102.615 15.4795C103.511 15.4795 104.408 15.5762 105.304 15.7695C106.218 15.9453 107.071 16.2178 107.862 16.5869L108.336 7.49023L102.509 4.72168L113.372 5.48633L110.525 27.8457L116.22 29.1904ZM107.703 19.0391C107.194 18.6875 106.561 18.4326 105.805 18.2744C105.049 18.1162 104.364 18.0371 103.748 18.0371C103.116 18.0371 102.527 18.1426 101.982 18.3535C101.454 18.5645 100.997 18.8633 100.611 19.25C100.241 19.6367 99.9514 20.1025 99.7405 20.6475C99.5296 21.1748 99.4241 21.7549 99.4241 22.3877C99.4241 23.0732 99.5911 23.6709 99.9251 24.1807C100.259 24.6729 100.69 25.0859 101.217 25.4199C101.744 25.7363 102.324 25.9648 102.957 26.1055C103.59 26.2637 104.197 26.3428 104.777 26.3428C105.656 26.3428 106.526 26.167 107.387 25.8154L107.703 19.0391ZM126.229 7.3584C126.229 7.74512 126.15 8.11426 125.992 8.46582C125.851 8.7998 125.649 9.09863 125.385 9.3623C125.139 9.6084 124.84 9.81055 124.489 9.96875C124.155 10.1094 123.794 10.1797 123.408 10.1797C123.021 10.1797 122.661 10.1094 122.327 9.96875C121.993 9.81055 121.694 9.6084 121.43 9.3623C121.184 9.09863 120.982 8.7998 120.824 8.46582C120.683 8.11426 120.613 7.74512 120.613 7.3584C120.613 6.97168 120.683 6.61133 120.824 6.27734C120.982 5.94336 121.184 5.65332 121.43 5.40723C121.694 5.14355 121.993 4.94141 122.327 4.80078C122.661 4.64258 123.021 4.56348 123.408 4.56348C123.794 4.56348 124.155 4.64258 124.489 4.80078C124.84 4.94141 125.139 5.14355 125.385 5.40723C125.649 5.65332 125.851 5.94336 125.992 6.27734C126.15 6.61133 126.229 6.97168 126.229 7.3584ZM129.314 26.0527L117.501 25.8418L121.878 23.126L121.509 14.3721L116.473 11.999H126.15L125.28 23.3105L129.314 26.0527ZM151.505 24.2598L140.061 24.3389L144.992 22.4404V17.6943C144.992 16.7627 144.755 16.0244 144.28 15.4795C143.823 14.917 143.12 14.6357 142.171 14.6357C141.696 14.6357 141.186 14.7148 140.641 14.873C140.114 15.0312 139.718 15.3301 139.455 15.7695L138.875 20.8848C139.05 21.0254 139.323 21.2012 139.692 21.4121C140.079 21.623 140.474 21.834 140.879 22.0449C141.336 22.291 141.828 22.5459 142.355 22.8096L131.518 22.8623L135.948 21.043L135.157 14.6885C134.647 14.5479 134.058 14.3896 133.39 14.2139C132.722 14.0205 132.081 13.8271 131.466 13.6338C130.762 13.4229 130.033 13.2031 129.277 12.9746L139.745 11.2344L139.613 12.8428C140.228 12.5967 140.887 12.3506 141.591 12.1045C142.294 11.8584 142.979 11.7354 143.647 11.7354C145.247 11.7354 146.486 12.166 147.365 13.0273C148.244 13.8887 148.683 15.1279 148.683 16.7451C148.683 17.1494 148.657 17.6064 148.604 18.1162C148.569 18.6084 148.516 19.1094 148.446 19.6191C148.376 20.1289 148.297 20.6387 148.209 21.1484C148.138 21.6406 148.068 22.0977 147.998 22.5195L151.505 24.2598ZM171.111 11.7617C171.111 12.0781 171.05 12.3857 170.927 12.6846C170.804 12.9834 170.637 13.2559 170.426 13.502C170.215 13.7305 169.969 13.9238 169.687 14.082C169.406 14.2227 169.107 14.293 168.791 14.293C168.141 14.293 167.613 14.0645 167.209 13.6074C166.822 13.1504 166.629 12.6143 166.629 11.999V11.8936C166.541 11.876 166.444 11.9375 166.339 12.0781C166.251 12.2012 166.154 12.3506 166.049 12.5264C165.961 12.7021 165.873 12.8779 165.785 13.0537C165.715 13.2119 165.662 13.3262 165.627 13.3965C166.682 13.9941 167.516 14.7939 168.132 15.7959C168.765 16.7803 169.081 17.8789 169.081 19.0918C169.081 20.041 168.879 20.9287 168.474 21.7549C168.088 22.5811 167.56 23.3018 166.892 23.917C166.242 24.5146 165.486 24.9893 164.625 25.3408C163.764 25.6748 162.867 25.8418 161.935 25.8418C161.584 25.8418 161.232 25.833 160.881 25.8154C160.529 25.7803 160.178 25.7188 159.826 25.6309C159.58 25.7891 159.457 25.9736 159.457 26.1846C159.457 26.3955 159.624 26.5537 159.958 26.6592C160.309 26.7822 160.696 26.8701 161.118 26.9229C161.558 26.9756 161.979 27.0107 162.384 27.0283C162.806 27.0459 163.087 27.0547 163.227 27.0547C164.177 27.1074 165.099 27.2744 165.996 27.5557C166.892 27.8369 167.683 28.2412 168.369 28.7686C169.072 29.3135 169.626 29.9814 170.03 30.7725C170.452 31.5635 170.663 32.4863 170.663 33.541C170.663 34.6484 170.382 35.5801 169.819 36.3359C169.257 37.0918 168.545 37.6982 167.683 38.1553C166.84 38.6123 165.908 38.9375 164.889 39.1309C163.887 39.3418 162.937 39.4473 162.041 39.4473C161.127 39.4473 160.16 39.3418 159.141 39.1309C158.139 38.9375 157.207 38.6123 156.346 38.1553C155.502 37.6982 154.799 37.0918 154.236 36.3359C153.674 35.5801 153.392 34.6484 153.392 33.541C153.392 32.4336 153.7 31.5195 154.315 30.7988C154.931 30.0781 155.704 29.4717 156.636 28.9795C156.179 28.7861 155.783 28.5312 155.449 28.2148C155.115 27.8984 154.948 27.4766 154.948 26.9492C154.948 26.6328 155.01 26.3428 155.133 26.0791C155.273 25.833 155.449 25.6221 155.66 25.4463C155.889 25.2529 156.135 25.0947 156.398 24.9717C156.68 24.8311 156.952 24.7168 157.216 24.6289C156.266 24.0137 155.502 23.2314 154.922 22.2822C154.342 21.3154 154.052 20.252 154.052 19.0918C154.052 18.0898 154.263 17.1758 154.684 16.3496C155.106 15.5059 155.669 14.7852 156.372 14.1875C157.075 13.5898 157.875 13.124 158.771 12.79C159.685 12.4561 160.617 12.2891 161.566 12.2891C162.199 12.2891 162.849 12.3682 163.517 12.5264C163.711 12.1045 163.939 11.6914 164.203 11.2871C164.467 10.8652 164.766 10.4873 165.099 10.1533C165.433 9.81934 165.811 9.54688 166.233 9.33594C166.655 9.125 167.121 9.01953 167.631 9.01953C168.017 9.01953 168.413 9.08105 168.817 9.2041C169.239 9.32715 169.617 9.51172 169.951 9.75781C170.285 9.98633 170.558 10.2676 170.768 10.6016C170.997 10.9355 171.111 11.3223 171.111 11.7617ZM165.073 19.0918C165.073 18.5996 165.003 18.0723 164.862 17.5098C164.722 16.9297 164.502 16.4023 164.203 15.9277C163.922 15.4531 163.561 15.0576 163.122 14.7412C162.683 14.4248 162.164 14.2666 161.566 14.2666C160.969 14.2666 160.45 14.4248 160.011 14.7412C159.571 15.0576 159.202 15.4531 158.903 15.9277C158.604 16.4023 158.376 16.9209 158.218 17.4834C158.077 18.0459 158.007 18.582 158.007 19.0918C158.007 19.6016 158.077 20.1465 158.218 20.7266C158.376 21.2891 158.596 21.8076 158.877 22.2822C159.176 22.7568 159.545 23.1523 159.984 23.4688C160.441 23.7852 160.969 23.9434 161.566 23.9434C162.164 23.9434 162.683 23.7852 163.122 23.4688C163.561 23.1523 163.922 22.7568 164.203 22.2822C164.502 21.79 164.722 21.2627 164.862 20.7002C165.003 20.1377 165.073 19.6016 165.073 19.0918ZM166.55 33.541C166.55 32.8906 166.427 32.3281 166.181 31.8535C165.934 31.3789 165.6 30.9834 165.179 30.667C164.757 30.3506 164.273 30.1133 163.728 29.9551C163.183 29.8145 162.621 29.7441 162.041 29.7441C161.461 29.7441 160.898 29.8145 160.353 29.9551C159.808 30.1133 159.325 30.3506 158.903 30.667C158.499 30.9834 158.174 31.3789 157.928 31.8535C157.682 32.3281 157.558 32.8906 157.558 33.541C157.558 34.1914 157.682 34.7539 157.928 35.2285C158.174 35.7031 158.499 36.0898 158.903 36.3887C159.325 36.7051 159.808 36.9336 160.353 37.0742C160.898 37.2324 161.461 37.3115 162.041 37.3115C162.621 37.3115 163.183 37.2324 163.728 37.0742C164.273 36.9336 164.757 36.7051 165.179 36.3887C165.6 36.0898 165.934 35.7031 166.181 35.2285C166.427 34.7539 166.55 34.1914 166.55 33.541Z"
        fill="white" />
    <path
        d="M92.092 58.718L77.1154 58.428L81.3078 56.4768L81.2814 45.6926L75.507 57.3469L69.2052 46.3782L69.6008 57.0042L77.2736 59.2717H60.0295L67.0168 57.0305L65.9094 42.0276L59.8713 39.4172L71.2355 39.5227L76.2189 49.6213L82.0724 38.9954L91.9865 39.3645L86.5812 41.5266L85.8429 56.5032L92.092 58.718ZM108.139 53.7874C108.139 53.9104 108.13 54.0334 108.113 54.1565C108.113 54.2795 108.113 54.4026 108.113 54.5256L97.3812 54.7366C97.6097 55.7737 98.1283 56.5383 98.9369 57.0305C99.7455 57.5227 100.66 57.7688 101.679 57.7688C102.171 57.7688 102.672 57.7336 103.182 57.6633C103.692 57.593 104.193 57.4788 104.685 57.3206C105.177 57.1624 105.643 56.9602 106.082 56.7141C106.522 56.4504 106.917 56.1428 107.269 55.7913C107.076 56.5295 106.75 57.1799 106.293 57.7424C105.836 58.3049 105.291 58.7708 104.659 59.1399C104.043 59.509 103.367 59.7815 102.628 59.9573C101.908 60.1506 101.187 60.2473 100.466 60.2473C99.4818 60.2473 98.5414 60.0715 97.6449 59.72C96.766 59.3684 95.9926 58.885 95.3246 58.2698C94.6742 57.6545 94.1556 56.9163 93.7689 56.0549C93.3822 55.1936 93.1888 54.2532 93.1888 53.2336C93.1888 52.1614 93.4086 51.1858 93.848 50.3069C94.2875 49.428 94.8676 48.6809 95.5883 48.0657C96.309 47.4329 97.1439 46.9495 98.0931 46.6155C99.0424 46.2815 100.036 46.1145 101.073 46.1145C102.162 46.1145 103.138 46.3167 103.999 46.7209C104.878 47.1252 105.625 47.679 106.241 48.3821C106.856 49.0852 107.322 49.9026 107.638 50.8342C107.972 51.7483 108.139 52.7327 108.139 53.7874ZM104.105 52.4426C104.07 51.968 103.973 51.511 103.815 51.0715C103.657 50.6321 103.437 50.2454 103.156 49.9114C102.874 49.5774 102.532 49.3137 102.127 49.1204C101.741 48.9094 101.284 48.804 100.756 48.804C100.229 48.804 99.7719 48.9006 99.3851 49.094C98.9984 49.2874 98.6732 49.551 98.4095 49.885C98.1459 50.2014 97.9261 50.5793 97.7504 51.0188C97.5922 51.4407 97.4691 51.8801 97.3812 52.3372L104.105 52.4426ZM127.957 53.7874C127.957 53.9104 127.948 54.0334 127.93 54.1565C127.93 54.2795 127.93 54.4026 127.93 54.5256L117.199 54.7366C117.427 55.7737 117.946 56.5383 118.754 57.0305C119.563 57.5227 120.477 57.7688 121.497 57.7688C121.989 57.7688 122.49 57.7336 123 57.6633C123.509 57.593 124.01 57.4788 124.503 57.3206C124.995 57.1624 125.461 56.9602 125.9 56.7141C126.339 56.4504 126.735 56.1428 127.086 55.7913C126.893 56.5295 126.568 57.1799 126.111 57.7424C125.654 58.3049 125.109 58.7708 124.476 59.1399C123.861 59.509 123.184 59.7815 122.446 59.9573C121.725 60.1506 121.004 60.2473 120.284 60.2473C119.299 60.2473 118.359 60.0715 117.462 59.72C116.584 59.3684 115.81 58.885 115.142 58.2698C114.492 57.6545 113.973 56.9163 113.586 56.0549C113.2 55.1936 113.006 54.2532 113.006 53.2336C113.006 52.1614 113.226 51.1858 113.666 50.3069C114.105 49.428 114.685 48.6809 115.406 48.0657C116.127 47.4329 116.961 46.9495 117.911 46.6155C118.86 46.2815 119.853 46.1145 120.89 46.1145C121.98 46.1145 122.956 46.3167 123.817 46.7209C124.696 47.1252 125.443 47.679 126.058 48.3821C126.673 49.0852 127.139 49.9026 127.456 50.8342C127.79 51.7483 127.957 52.7327 127.957 53.7874ZM123.922 52.4426C123.887 51.968 123.791 51.511 123.632 51.0715C123.474 50.6321 123.254 50.2454 122.973 49.9114C122.692 49.5774 122.349 49.3137 121.945 49.1204C121.558 48.9094 121.101 48.804 120.574 48.804C120.046 48.804 119.589 48.9006 119.203 49.094C118.816 49.2874 118.491 49.551 118.227 49.885C117.963 50.2014 117.744 50.5793 117.568 51.0188C117.41 51.4407 117.287 51.8801 117.199 52.3372L123.922 52.4426ZM143.555 41.553L143.318 44.0315C142.457 43.9612 141.604 43.8997 140.761 43.8469C139.917 43.7766 139.064 43.6975 138.203 43.6096C138.062 45.2795 137.913 46.9407 137.755 48.593C137.596 50.2454 137.438 51.9065 137.28 53.5764C137.28 53.6643 137.271 53.7522 137.254 53.8401C137.236 53.928 137.227 54.0159 137.227 54.1038C137.227 54.3499 137.254 54.6047 137.306 54.8684C137.359 55.1145 137.447 55.343 137.57 55.554C137.693 55.7473 137.851 55.9143 138.045 56.0549C138.256 56.178 138.511 56.2395 138.809 56.2395C139.389 56.2395 139.899 56.1077 140.339 55.844C140.778 55.5627 141.147 55.2112 141.446 54.7893C141.745 54.3674 141.982 53.9016 142.158 53.3918C142.334 52.8645 142.448 52.3459 142.501 51.8362C142.712 52.6624 142.817 53.4797 142.817 54.2883C142.817 55.0618 142.694 55.7649 142.448 56.3977C142.202 57.0129 141.859 57.5491 141.42 58.0061C140.98 58.4456 140.453 58.7883 139.838 59.0344C139.222 59.2805 138.546 59.4036 137.807 59.4036C137.034 59.4036 136.357 59.2717 135.777 59.0081C135.197 58.7444 134.714 58.384 134.327 57.927C133.958 57.4524 133.677 56.8987 133.483 56.2659C133.307 55.6331 133.22 54.9563 133.22 54.2356C133.22 54.095 133.22 53.9631 133.22 53.8401C133.22 53.717 133.228 53.5852 133.246 53.4446C133.387 51.7395 133.518 50.0608 133.641 48.4084C133.782 46.7385 133.905 45.051 134.011 43.3459C133.536 43.3108 133.061 43.2756 132.587 43.2405C132.13 43.1877 131.664 43.135 131.189 43.0823L131.295 40.9993C131.664 40.9817 132.051 40.9202 132.455 40.8147C132.859 40.7092 133.246 40.5686 133.615 40.3928C134.002 40.217 134.353 40.0061 134.67 39.76C135.004 39.5139 135.276 39.2327 135.487 38.9163C135.68 38.5999 135.856 38.2571 136.014 37.8879C136.19 37.5188 136.34 37.1321 136.463 36.7278C136.603 36.3235 136.718 35.928 136.805 35.5413C136.893 35.137 136.955 34.7502 136.99 34.3811L139.152 34.4338L138.467 41.0256L143.555 41.553Z"
        fill="white" />
    <path
        d="M170.62 48.4846L149.521 61.8528L149.14 58.7678L160.642 49.551L147.426 42.6956L149.292 35.8782L170.62 48.4846Z"
        fill="#03FA6E" />
    <path d="M43.1347 3.38672L27.08 29.3145L23.3007 27.0586L38.6816 0.486328L43.1347 3.38672Z"
        fill="#03FA6E" />
    <path
        d="M19.2414 11.5L8.42893 17.125L17.9289 24.6875L17.4914 27.1875L0.210182 16.25L17.7414 5.90625L19.2414 11.5Z"
        fill="#03FA6E" />
</svg>
