<svg fill="none" height="54" viewBox="0 0 153 54" width="153" xmlns="http://www.w3.org/2000/svg">
    <path
        d="M60.7956 1.90625L59.2019 11.6797C58.9988 11.0078 58.7253 10.3359 58.3816 9.66406C58.0534 8.99219 57.6472 8.39844 57.1628 7.88281C56.6784 7.35156 56.1159 6.92188 55.4753 6.59375C54.8503 6.26562 54.1472 6.10156 53.3659 6.10156C52.4753 6.10156 51.6706 6.26562 50.9519 6.59375C50.2331 6.90625 49.6159 7.34375 49.1003 7.90625C48.6003 8.45312 48.2175 9.10156 47.9519 9.85156C47.6863 10.6016 47.5534 11.4062 47.5534 12.2656C47.5534 13.2031 47.6784 14.0781 47.9284 14.8906C48.1941 15.6875 48.5847 16.3906 49.1003 17C49.6159 17.5938 50.2488 18.0625 50.9988 18.4062C51.7488 18.7344 52.6159 18.8984 53.6003 18.8984C55.1628 18.8984 56.3894 18.4688 57.28 17.6094C58.1863 16.75 58.7488 15.5625 58.9675 14.0469L60.5613 21.8984L58.6628 19.1797C58.3034 19.5859 57.8894 19.9219 57.4206 20.1875C56.9519 20.4688 56.4519 20.6953 55.9206 20.8672C55.3894 21.0391 54.8425 21.1641 54.28 21.2422C53.7331 21.3203 53.2019 21.3594 52.6863 21.3594C51.3269 21.3594 50.0613 21.1406 48.8894 20.7031C47.7331 20.2656 46.7175 19.6406 45.8425 18.8281C44.9831 18.0156 44.3034 17.0469 43.8034 15.9219C43.3191 14.7812 43.0769 13.5156 43.0769 12.125C43.0769 10.75 43.3269 9.53125 43.8269 8.46875C44.3425 7.39062 45.0378 6.48438 45.9128 5.75C46.7878 5.01562 47.8034 4.46094 48.9597 4.08594C50.1316 3.71094 51.3659 3.52344 52.6628 3.52344C53.1159 3.52344 53.5847 3.57031 54.0691 3.66406C54.5691 3.74219 55.0613 3.86719 55.5456 4.03906C56.03 4.21094 56.4831 4.42969 56.905 4.69531C57.3269 4.94531 57.6941 5.24219 58.0066 5.58594L60.7956 1.90625ZM80.5675 14.3281C80.5675 15.4062 80.2941 16.3203 79.7472 17.0703C79.2159 17.8047 78.5284 18.4062 77.6847 18.875C76.8566 19.3281 75.9503 19.6641 74.9659 19.8828C73.9816 20.0859 73.0441 20.1875 72.1534 20.1875C71.2784 20.1875 70.3644 20.0781 69.4113 19.8594C68.4738 19.6406 67.6066 19.2969 66.8097 18.8281C66.0284 18.3594 65.38 17.7578 64.8644 17.0234C64.3644 16.2734 64.1144 15.375 64.1144 14.3281C64.1144 13.1875 64.3878 12.2422 64.9347 11.4922C65.4816 10.7422 66.1691 10.1484 66.9972 9.71094C67.8409 9.27344 68.7628 8.96875 69.7628 8.79688C70.7784 8.625 71.755 8.53906 72.6925 8.53906C73.5519 8.53906 74.4425 8.64844 75.3644 8.86719C76.3019 9.08594 77.1534 9.42969 77.9191 9.89844C78.7003 10.3516 79.3331 10.9453 79.8175 11.6797C80.3175 12.4141 80.5675 13.2969 80.5675 14.3281ZM76.7003 14.2812C76.7003 13.7188 76.5909 13.2031 76.3722 12.7344C76.1691 12.2656 75.88 11.8594 75.505 11.5156C75.1456 11.1719 74.7238 10.9062 74.2394 10.7188C73.755 10.5312 73.2394 10.4375 72.6925 10.4375C72.13 10.4375 71.5675 10.5234 71.005 10.6953C70.4425 10.8516 69.9347 11.0859 69.4816 11.3984C69.0284 11.7109 68.6613 12.1094 68.38 12.5938C68.0988 13.0625 67.9581 13.6016 67.9581 14.2109C67.9581 14.8203 68.0519 15.375 68.2394 15.875C68.4425 16.375 68.7238 16.8047 69.0831 17.1641C69.4581 17.5234 69.8956 17.8047 70.3956 18.0078C70.8956 18.1953 71.4503 18.2891 72.0597 18.2891C72.7159 18.2891 73.3253 18.2188 73.8878 18.0781C74.4503 17.9219 74.9425 17.6797 75.3644 17.3516C75.7863 17.0234 76.1144 16.6094 76.3488 16.1094C76.5831 15.5938 76.7003 14.9844 76.7003 14.2812ZM103.714 22.8359L95.605 23.9609L95.7222 21.9219C95.2691 22.0312 94.8081 22.1094 94.3394 22.1562C93.8706 22.2031 93.4019 22.2266 92.9331 22.2266C92.0113 22.2266 91.0816 22.1172 90.1441 21.8984C89.2222 21.6953 88.3863 21.3594 87.6363 20.8906C86.9019 20.4219 86.3003 19.8125 85.8316 19.0625C85.3628 18.3125 85.1284 17.3984 85.1284 16.3203C85.1284 15.4453 85.3159 14.6641 85.6909 13.9766C86.0659 13.2734 86.5581 12.6797 87.1675 12.1953C87.7769 11.6953 88.4644 11.3125 89.23 11.0469C90.0113 10.7812 90.8081 10.6484 91.6206 10.6484C92.4175 10.6484 93.2144 10.7344 94.0113 10.9062C94.8238 11.0625 95.5816 11.3047 96.2847 11.6328L96.7066 3.54688L91.5269 1.08594L101.183 1.76562L98.6519 21.6406L103.714 22.8359ZM96.1441 13.8125C95.6909 13.5 95.1284 13.2734 94.4566 13.1328C93.7847 12.9922 93.1753 12.9219 92.6284 12.9219C92.0659 12.9219 91.5425 13.0156 91.0581 13.2031C90.5894 13.3906 90.1831 13.6562 89.8394 14C89.5113 14.3438 89.2534 14.7578 89.0659 15.2422C88.8784 15.7109 88.7847 16.2266 88.7847 16.7891C88.7847 17.3984 88.9331 17.9297 89.23 18.3828C89.5269 18.8203 89.9097 19.1875 90.3784 19.4844C90.8472 19.7656 91.3628 19.9688 91.9253 20.0938C92.4878 20.2344 93.0269 20.3047 93.5425 20.3047C94.3238 20.3047 95.0972 20.1484 95.8628 19.8359L96.1441 13.8125ZM112.611 3.42969C112.611 3.77344 112.541 4.10156 112.4 4.41406C112.275 4.71094 112.096 4.97656 111.861 5.21094C111.643 5.42969 111.377 5.60938 111.064 5.75C110.768 5.875 110.447 5.9375 110.103 5.9375C109.76 5.9375 109.439 5.875 109.143 5.75C108.846 5.60938 108.58 5.42969 108.346 5.21094C108.127 4.97656 107.947 4.71094 107.807 4.41406C107.682 4.10156 107.619 3.77344 107.619 3.42969C107.619 3.08594 107.682 2.76562 107.807 2.46875C107.947 2.17188 108.127 1.91406 108.346 1.69531C108.58 1.46094 108.846 1.28125 109.143 1.15625C109.439 1.01562 109.76 0.945312 110.103 0.945312C110.447 0.945312 110.768 1.01562 111.064 1.15625C111.377 1.28125 111.643 1.46094 111.861 1.69531C112.096 1.91406 112.275 2.17188 112.4 2.46875C112.541 2.76562 112.611 3.08594 112.611 3.42969ZM115.353 20.0469L104.853 19.8594L108.744 17.4453L108.416 9.66406L103.939 7.55469H112.541L111.768 17.6094L115.353 20.0469ZM135.078 18.4531L124.907 18.5234L129.289 16.8359V12.6172C129.289 11.7891 129.078 11.1328 128.657 10.6484C128.25 10.1484 127.625 9.89844 126.782 9.89844C126.36 9.89844 125.907 9.96875 125.422 10.1094C124.953 10.25 124.602 10.5156 124.368 10.9062L123.852 15.4531C124.008 15.5781 124.25 15.7344 124.578 15.9219C124.922 16.1094 125.274 16.2969 125.633 16.4844C126.039 16.7031 126.477 16.9297 126.946 17.1641L117.313 17.2109L121.25 15.5938L120.547 9.94531C120.094 9.82031 119.571 9.67969 118.977 9.52344C118.383 9.35156 117.813 9.17969 117.266 9.00781C116.641 8.82031 115.993 8.625 115.321 8.42188L124.625 6.875L124.508 8.30469C125.055 8.08594 125.641 7.86719 126.266 7.64844C126.891 7.42969 127.5 7.32031 128.094 7.32031C129.516 7.32031 130.618 7.70313 131.399 8.46875C132.18 9.23438 132.571 10.3359 132.571 11.7734C132.571 12.1328 132.547 12.5391 132.5 12.9922C132.469 13.4297 132.422 13.875 132.36 14.3281C132.297 14.7812 132.227 15.2344 132.149 15.6875C132.086 16.125 132.024 16.5312 131.961 16.9062L135.078 18.4531ZM152.507 7.34375C152.507 7.625 152.452 7.89844 152.343 8.16406C152.233 8.42969 152.085 8.67188 151.897 8.89062C151.71 9.09375 151.491 9.26562 151.241 9.40625C150.991 9.53125 150.725 9.59375 150.444 9.59375C149.866 9.59375 149.397 9.39062 149.038 8.98438C148.694 8.57812 148.522 8.10156 148.522 7.55469V7.46094C148.444 7.44531 148.358 7.5 148.264 7.625C148.186 7.73437 148.1 7.86719 148.007 8.02344C147.928 8.17969 147.85 8.33594 147.772 8.49219C147.71 8.63281 147.663 8.73438 147.632 8.79688C148.569 9.32812 149.311 10.0391 149.858 10.9297C150.421 11.8047 150.702 12.7812 150.702 13.8594C150.702 14.7031 150.522 15.4922 150.163 16.2266C149.819 16.9609 149.35 17.6016 148.757 18.1484C148.178 18.6797 147.507 19.1016 146.741 19.4141C145.975 19.7109 145.178 19.8594 144.35 19.8594C144.038 19.8594 143.725 19.8516 143.413 19.8359C143.1 19.8047 142.788 19.75 142.475 19.6719C142.257 19.8125 142.147 19.9766 142.147 20.1641C142.147 20.3516 142.296 20.4922 142.593 20.5859C142.905 20.6953 143.249 20.7734 143.624 20.8203C144.014 20.8672 144.389 20.8984 144.749 20.9141C145.124 20.9297 145.374 20.9375 145.499 20.9375C146.343 20.9844 147.163 21.1328 147.96 21.3828C148.757 21.6328 149.46 21.9922 150.069 22.4609C150.694 22.9453 151.186 23.5391 151.546 24.2422C151.921 24.9453 152.108 25.7656 152.108 26.7031C152.108 27.6875 151.858 28.5156 151.358 29.1875C150.858 29.8594 150.225 30.3984 149.46 30.8047C148.71 31.2109 147.882 31.5 146.975 31.6719C146.085 31.8594 145.241 31.9531 144.444 31.9531C143.632 31.9531 142.772 31.8594 141.866 31.6719C140.975 31.5 140.147 31.2109 139.382 30.8047C138.632 30.3984 138.007 29.8594 137.507 29.1875C137.007 28.5156 136.757 27.6875 136.757 26.7031C136.757 25.7188 137.03 24.9062 137.577 24.2656C138.124 23.625 138.811 23.0859 139.639 22.6484C139.233 22.4766 138.882 22.25 138.585 21.9688C138.288 21.6875 138.139 21.3125 138.139 20.8438C138.139 20.5625 138.194 20.3047 138.303 20.0703C138.428 19.8516 138.585 19.6641 138.772 19.5078C138.975 19.3359 139.194 19.1953 139.428 19.0859C139.678 18.9609 139.921 18.8594 140.155 18.7812C139.311 18.2344 138.632 17.5391 138.116 16.6953C137.6 15.8359 137.343 14.8906 137.343 13.8594C137.343 12.9688 137.53 12.1562 137.905 11.4219C138.28 10.6719 138.78 10.0312 139.405 9.5C140.03 8.96875 140.741 8.55469 141.538 8.25781C142.35 7.96094 143.178 7.8125 144.022 7.8125C144.585 7.8125 145.163 7.88281 145.757 8.02344C145.928 7.64844 146.132 7.28125 146.366 6.92188C146.6 6.54688 146.866 6.21094 147.163 5.91406C147.46 5.61719 147.796 5.375 148.171 5.1875C148.546 5 148.96 4.90625 149.413 4.90625C149.757 4.90625 150.108 4.96094 150.468 5.07031C150.843 5.17969 151.178 5.34375 151.475 5.5625C151.772 5.76562 152.014 6.01563 152.202 6.3125C152.405 6.60937 152.507 6.95313 152.507 7.34375ZM147.139 13.8594C147.139 13.4219 147.077 12.9531 146.952 12.4531C146.827 11.9375 146.632 11.4688 146.366 11.0469C146.116 10.625 145.796 10.2734 145.405 9.99219C145.014 9.71094 144.553 9.57031 144.022 9.57031C143.491 9.57031 143.03 9.71094 142.639 9.99219C142.249 10.2734 141.921 10.625 141.655 11.0469C141.389 11.4688 141.186 11.9297 141.046 12.4297C140.921 12.9297 140.858 13.4062 140.858 13.8594C140.858 14.3125 140.921 14.7969 141.046 15.3125C141.186 15.8125 141.382 16.2734 141.632 16.6953C141.897 17.1172 142.225 17.4688 142.616 17.75C143.022 18.0312 143.491 18.1719 144.022 18.1719C144.553 18.1719 145.014 18.0312 145.405 17.75C145.796 17.4688 146.116 17.1172 146.366 16.6953C146.632 16.2578 146.827 15.7891 146.952 15.2891C147.077 14.7891 147.139 14.3125 147.139 13.8594ZM148.452 26.7031C148.452 26.125 148.343 25.625 148.124 25.2031C147.905 24.7812 147.608 24.4297 147.233 24.1484C146.858 23.8672 146.428 23.6562 145.944 23.5156C145.46 23.3906 144.96 23.3281 144.444 23.3281C143.928 23.3281 143.428 23.3906 142.944 23.5156C142.46 23.6562 142.03 23.8672 141.655 24.1484C141.296 24.4297 141.007 24.7812 140.788 25.2031C140.569 25.625 140.46 26.125 140.46 26.7031C140.46 27.2812 140.569 27.7812 140.788 28.2031C141.007 28.625 141.296 28.9688 141.655 29.2344C142.03 29.5156 142.46 29.7188 142.944 29.8438C143.428 29.9844 143.928 30.0547 144.444 30.0547C144.96 30.0547 145.46 29.9844 145.944 29.8438C146.428 29.7188 146.858 29.5156 147.233 29.2344C147.608 28.9688 147.905 28.625 148.124 28.2031C148.343 27.7812 148.452 27.2812 148.452 26.7031Z"
        fill="black" />
    <path
        d="M82.3076 43.3931L68.9951 43.1353L72.7216 41.4009L72.6982 31.8149L67.5654 42.1743L61.9638 32.4243L62.3154 41.8696L69.1357 43.8853H53.8076L60.0185 41.8931L59.0341 28.5571L53.6669 26.2368L63.7685 26.3306L68.1982 35.3071L73.4013 25.8618L82.2138 26.1899L77.4091 28.1118L76.7529 41.4243L82.3076 43.3931ZM96.5716 39.0103C96.5716 39.1196 96.5638 39.229 96.5482 39.3384C96.5482 39.4478 96.5482 39.5571 96.5482 39.6665L87.0091 39.854C87.2122 40.7759 87.6732 41.4556 88.3919 41.8931C89.1107 42.3306 89.9232 42.5493 90.8294 42.5493C91.2669 42.5493 91.7122 42.5181 92.1654 42.4556C92.6185 42.3931 93.0638 42.2915 93.5013 42.1509C93.9388 42.0103 94.3529 41.8306 94.7435 41.6118C95.1341 41.3774 95.4857 41.104 95.7982 40.7915C95.6263 41.4478 95.3372 42.0259 94.931 42.5259C94.5247 43.0259 94.0404 43.4399 93.4779 43.7681C92.931 44.0962 92.3294 44.3384 91.6732 44.4946C91.0326 44.6665 90.3919 44.7524 89.7513 44.7524C88.8763 44.7524 88.0404 44.5962 87.2435 44.2837C86.4622 43.9712 85.7747 43.5415 85.181 42.9946C84.6029 42.4478 84.1419 41.7915 83.7982 41.0259C83.4544 40.2603 83.2826 39.4243 83.2826 38.5181C83.2826 37.5649 83.4779 36.6978 83.8685 35.9165C84.2591 35.1353 84.7747 34.4712 85.4154 33.9243C86.056 33.3618 86.7982 32.9321 87.6419 32.6353C88.4857 32.3384 89.3685 32.1899 90.2904 32.1899C91.2591 32.1899 92.1263 32.3696 92.8919 32.729C93.6732 33.0884 94.3372 33.5806 94.8841 34.2056C95.431 34.8306 95.8451 35.5571 96.1263 36.3853C96.4232 37.1978 96.5716 38.0728 96.5716 39.0103ZM92.9857 37.8149C92.9544 37.3931 92.8685 36.9868 92.7279 36.5962C92.5872 36.2056 92.3919 35.8618 92.1419 35.5649C91.8919 35.2681 91.5872 35.0337 91.2279 34.8618C90.8841 34.6743 90.4779 34.5806 90.0091 34.5806C89.5404 34.5806 89.1341 34.6665 88.7904 34.8384C88.4466 35.0103 88.1576 35.2446 87.9232 35.5415C87.6888 35.8228 87.4935 36.1587 87.3372 36.5493C87.1966 36.9243 87.0872 37.3149 87.0091 37.7212L92.9857 37.8149ZM114.187 39.0103C114.187 39.1196 114.179 39.229 114.164 39.3384C114.164 39.4478 114.164 39.5571 114.164 39.6665L104.625 39.854C104.828 40.7759 105.289 41.4556 106.008 41.8931C106.726 42.3306 107.539 42.5493 108.445 42.5493C108.883 42.5493 109.328 42.5181 109.781 42.4556C110.234 42.3931 110.679 42.2915 111.117 42.1509C111.554 42.0103 111.968 41.8306 112.359 41.6118C112.75 41.3774 113.101 41.104 113.414 40.7915C113.242 41.4478 112.953 42.0259 112.547 42.5259C112.14 43.0259 111.656 43.4399 111.093 43.7681C110.547 44.0962 109.945 44.3384 109.289 44.4946C108.648 44.6665 108.008 44.7524 107.367 44.7524C106.492 44.7524 105.656 44.5962 104.859 44.2837C104.078 43.9712 103.39 43.5415 102.797 42.9946C102.218 42.4478 101.758 41.7915 101.414 41.0259C101.07 40.2603 100.898 39.4243 100.898 38.5181C100.898 37.5649 101.093 36.6978 101.484 35.9165C101.875 35.1353 102.39 34.4712 103.031 33.9243C103.672 33.3618 104.414 32.9321 105.258 32.6353C106.101 32.3384 106.984 32.1899 107.906 32.1899C108.875 32.1899 109.742 32.3696 110.508 32.729C111.289 33.0884 111.953 33.5806 112.5 34.2056C113.047 34.8306 113.461 35.5571 113.742 36.3853C114.039 37.1978 114.187 38.0728 114.187 39.0103ZM110.601 37.8149C110.57 37.3931 110.484 36.9868 110.343 36.5962C110.203 36.2056 110.008 35.8618 109.758 35.5649C109.508 35.2681 109.203 35.0337 108.843 34.8618C108.5 34.6743 108.093 34.5806 107.625 34.5806C107.156 34.5806 106.75 34.6665 106.406 34.8384C106.062 35.0103 105.773 35.2446 105.539 35.5415C105.304 35.8228 105.109 36.1587 104.953 36.5493C104.812 36.9243 104.703 37.3149 104.625 37.7212L110.601 37.8149ZM128.053 28.1353L127.842 30.3384C127.076 30.2759 126.318 30.2212 125.568 30.1743C124.818 30.1118 124.061 30.0415 123.295 29.9634C123.17 31.4478 123.037 32.9243 122.897 34.3931C122.756 35.8618 122.615 37.3384 122.475 38.8228C122.475 38.9009 122.467 38.979 122.451 39.0571C122.436 39.1353 122.428 39.2134 122.428 39.2915C122.428 39.5103 122.451 39.7368 122.498 39.9712C122.545 40.1899 122.623 40.3931 122.733 40.5806C122.842 40.7524 122.983 40.9009 123.154 41.0259C123.342 41.1353 123.568 41.1899 123.834 41.1899C124.35 41.1899 124.803 41.0728 125.193 40.8384C125.584 40.5884 125.912 40.2759 126.178 39.9009C126.443 39.5259 126.654 39.1118 126.811 38.6587C126.967 38.1899 127.068 37.729 127.115 37.2759C127.303 38.0103 127.397 38.7368 127.397 39.4556C127.397 40.1431 127.287 40.7681 127.068 41.3306C126.85 41.8774 126.545 42.354 126.154 42.7603C125.764 43.1509 125.295 43.4556 124.748 43.6743C124.201 43.8931 123.6 44.0024 122.943 44.0024C122.256 44.0024 121.654 43.8853 121.139 43.6509C120.623 43.4165 120.193 43.0962 119.85 42.6899C119.522 42.2681 119.272 41.7759 119.1 41.2134C118.943 40.6509 118.865 40.0493 118.865 39.4087C118.865 39.2837 118.865 39.1665 118.865 39.0571C118.865 38.9478 118.873 38.8306 118.889 38.7056C119.014 37.1899 119.131 35.6978 119.24 34.229C119.365 32.7446 119.475 31.2446 119.568 29.729C119.147 29.6978 118.725 29.6665 118.303 29.6353C117.897 29.5884 117.483 29.5415 117.061 29.4946L117.154 27.6431C117.483 27.6274 117.826 27.5728 118.186 27.479C118.545 27.3853 118.889 27.2603 119.217 27.104C119.561 26.9478 119.873 26.7603 120.154 26.5415C120.451 26.3228 120.693 26.0728 120.881 25.7915C121.053 25.5103 121.209 25.2056 121.35 24.8774C121.506 24.5493 121.639 24.2056 121.748 23.8462C121.873 23.4868 121.975 23.1353 122.053 22.7915C122.131 22.4321 122.186 22.0884 122.217 21.7603L124.139 21.8071L123.529 27.6665L128.053 28.1353Z"
        fill="black" />
    <path
        d="M150.99 38.2422L132.055 50.2393L131.713 47.4707L142.035 39.1992L130.175 33.0469L131.85 26.9287L150.99 38.2422Z"
        fill="#03FA6E" />
    <path d="M42.7799 4.38672L26.7252 30.3145L22.9459 28.0586L38.3268 1.48633L42.7799 4.38672Z"
        fill="#03FA6E" />
    <path
        d="M19.2737 11.5L8.46119 17.125L17.9612 24.6875L17.5237 27.1875L0.24244 16.25L17.7737 5.90625L19.2737 11.5Z"
        fill="#03FA6E" />
</svg>
