<svg width="215" height="81" viewBox="0 0 215 81" fill="none" xmlns="http://www.w3.org/2000/svg">
    <path
        d="M84.8765 5.36719L82.6186 19.2129C82.3309 18.2611 81.9435 17.3092 81.4565 16.3574C80.9917 15.4056 80.4162 14.5645 79.73 13.834C79.0438 13.0814 78.2469 12.4727 77.3393 12.0078C76.4539 11.543 75.4578 11.3105 74.3511 11.3105C73.0893 11.3105 71.9494 11.543 70.9311 12.0078C69.9129 12.4505 69.0386 13.0703 68.3081 13.8672C67.5998 14.6419 67.0574 15.5605 66.6811 16.623C66.3048 17.6855 66.1167 18.8255 66.1167 20.043C66.1167 21.3711 66.2938 22.6107 66.6479 23.7617C67.0242 24.8906 67.5776 25.8867 68.3081 26.75C69.0386 27.5911 69.9351 28.2552 70.9976 28.7422C72.0601 29.207 73.2886 29.4395 74.6831 29.4395C76.8966 29.4395 78.6343 28.8307 79.896 27.6133C81.1798 26.3958 81.9767 24.7135 82.2866 22.5664L84.5444 33.6895L81.855 29.8379C81.3459 30.4134 80.7593 30.8893 80.0952 31.2656C79.4311 31.6641 78.7228 31.985 77.9702 32.2285C77.2176 32.472 76.4429 32.6491 75.646 32.7598C74.8712 32.8704 74.1186 32.9258 73.3882 32.9258C71.4624 32.9258 69.6694 32.6159 68.0093 31.9961C66.3712 31.3763 64.9324 30.4909 63.6929 29.3398C62.4754 28.1888 61.5125 26.8164 60.8042 25.2227C60.118 23.6068 59.7749 21.8138 59.7749 19.8438C59.7749 17.8958 60.1291 16.1693 60.8374 14.6641C61.5679 13.1367 62.5529 11.8529 63.7925 10.8125C65.0321 9.77214 66.4709 8.98633 68.1089 8.45508C69.769 7.92383 71.5177 7.6582 73.355 7.6582C73.9969 7.6582 74.661 7.72461 75.3472 7.85742C76.0555 7.9681 76.7528 8.14518 77.439 8.38867C78.1252 8.63216 78.7671 8.94206 79.3647 9.31836C79.9624 9.67253 80.4826 10.0931 80.9253 10.5801L84.8765 5.36719ZM112.887 22.9648C112.887 24.4922 112.499 25.7871 111.725 26.8496C110.972 27.89 109.998 28.7422 108.803 29.4062C107.629 30.0482 106.346 30.5241 104.951 30.834C103.557 31.1217 102.228 31.2656 100.967 31.2656C99.7271 31.2656 98.4322 31.1107 97.0819 30.8008C95.7538 30.4909 94.5253 30.0039 93.3964 29.3398C92.2896 28.6758 91.371 27.8236 90.6405 26.7832C89.9322 25.7207 89.578 24.4479 89.578 22.9648C89.578 21.349 89.9654 20.0098 90.7401 18.9473C91.5149 17.8848 92.4888 17.0436 93.662 16.4238C94.8573 15.804 96.1633 15.3724 97.58 15.1289C99.0188 14.8854 100.402 14.7637 101.73 14.7637C102.948 14.7637 104.21 14.9186 105.516 15.2285C106.844 15.5384 108.05 16.0254 109.135 16.6895C110.241 17.3314 111.138 18.1725 111.824 19.2129C112.532 20.2533 112.887 21.5039 112.887 22.9648ZM107.408 22.8984C107.408 22.1016 107.253 21.3711 106.943 20.707C106.655 20.043 106.246 19.4674 105.715 18.9805C105.206 18.4935 104.608 18.1172 103.922 17.8516C103.236 17.5859 102.505 17.4531 101.73 17.4531C100.933 17.4531 100.137 17.5749 99.3397 17.8184C98.5429 18.0397 97.8235 18.3717 97.1815 18.8145C96.5396 19.2572 96.0194 19.8216 95.621 20.5078C95.2225 21.1719 95.0233 21.9355 95.0233 22.7988C95.0233 23.6621 95.1561 24.4479 95.4218 25.1562C95.7095 25.8646 96.108 26.4733 96.6171 26.9824C97.1483 27.4915 97.7681 27.89 98.4765 28.1777C99.1848 28.4434 99.9706 28.5762 100.834 28.5762C101.764 28.5762 102.627 28.4766 103.424 28.2773C104.221 28.056 104.918 27.7129 105.516 27.248C106.113 26.7832 106.578 26.1966 106.91 25.4883C107.242 24.7578 107.408 23.8945 107.408 22.8984ZM145.678 35.0176L134.19 36.6113L134.356 33.7227C133.714 33.8776 133.061 33.9883 132.397 34.0547C131.733 34.1211 131.069 34.1543 130.405 34.1543C129.099 34.1543 127.782 33.9993 126.453 33.6895C125.147 33.4017 123.963 32.9258 122.901 32.2617C121.86 31.5977 121.008 30.7344 120.344 29.6719C119.68 28.6094 119.348 27.3145 119.348 25.7871C119.348 24.5475 119.614 23.4408 120.145 22.4668C120.676 21.4707 121.373 20.6296 122.237 19.9434C123.1 19.235 124.074 18.6927 125.158 18.3164C126.265 17.9401 127.394 17.752 128.545 17.752C129.674 17.752 130.803 17.8737 131.932 18.1172C133.083 18.3385 134.157 18.6816 135.153 19.1465L135.75 7.69141L128.412 4.20508L142.092 5.16797L138.506 33.3242L145.678 35.0176ZM134.953 22.2344C134.311 21.7917 133.515 21.4707 132.563 21.2715C131.611 21.0723 130.748 20.9727 129.973 20.9727C129.176 20.9727 128.435 21.1055 127.748 21.3711C127.084 21.6367 126.509 22.013 126.022 22.5C125.557 22.987 125.192 23.5736 124.926 24.2598C124.66 24.9238 124.528 25.6543 124.528 26.4512C124.528 27.3145 124.738 28.0671 125.158 28.709C125.579 29.3288 126.121 29.849 126.785 30.2695C127.45 30.668 128.18 30.9557 128.977 31.1328C129.774 31.332 130.537 31.4316 131.268 31.4316C132.375 31.4316 133.47 31.2103 134.555 30.7676L134.953 22.2344ZM158.282 7.52539C158.282 8.01237 158.182 8.47721 157.983 8.91992C157.806 9.34049 157.551 9.7168 157.219 10.0488C156.91 10.3587 156.533 10.6133 156.091 10.8125C155.67 10.9896 155.216 11.0781 154.729 11.0781C154.242 11.0781 153.788 10.9896 153.368 10.8125C152.947 10.6133 152.571 10.3587 152.239 10.0488C151.929 9.7168 151.675 9.34049 151.475 8.91992C151.298 8.47721 151.21 8.01237 151.21 7.52539C151.21 7.03841 151.298 6.58464 151.475 6.16406C151.675 5.74349 151.929 5.37826 152.239 5.06836C152.571 4.73633 152.947 4.48177 153.368 4.30469C153.788 4.10547 154.242 4.00586 154.729 4.00586C155.216 4.00586 155.67 4.10547 156.091 4.30469C156.533 4.48177 156.91 4.73633 157.219 5.06836C157.551 5.37826 157.806 5.74349 157.983 6.16406C158.182 6.58464 158.282 7.03841 158.282 7.52539ZM162.167 31.0664L147.292 30.8008L152.803 27.3809L152.339 16.3574L145.997 13.3691H158.182L157.087 27.6133L162.167 31.0664ZM190.11 28.8086L175.7 28.9082L181.909 26.5176V20.541C181.909 19.3678 181.61 18.4382 181.013 17.752C180.437 17.0436 179.552 16.6895 178.357 16.6895C177.759 16.6895 177.117 16.7891 176.431 16.9883C175.767 17.1875 175.269 17.5638 174.937 18.1172L174.206 24.5586C174.428 24.7357 174.771 24.957 175.235 25.2227C175.722 25.4883 176.22 25.7539 176.73 26.0195C177.305 26.3294 177.925 26.6504 178.589 26.9824L164.942 27.0488L170.521 24.7578L169.525 16.7559C168.883 16.5788 168.141 16.3796 167.3 16.1582C166.459 15.9147 165.651 15.6712 164.876 15.4277C163.991 15.1621 163.072 14.8854 162.12 14.5977L175.302 12.4062L175.136 14.4316C175.911 14.1217 176.741 13.8118 177.626 13.502C178.511 13.1921 179.375 13.0371 180.216 13.0371C182.23 13.0371 183.791 13.5794 184.898 14.6641C186.004 15.7487 186.558 17.3092 186.558 19.3457C186.558 19.8548 186.525 20.4303 186.458 21.0723C186.414 21.6921 186.347 22.3229 186.259 22.9648C186.17 23.6068 186.071 24.2487 185.96 24.8906C185.872 25.5104 185.783 26.0859 185.694 26.6172L190.11 28.8086ZM214.8 13.0703C214.8 13.4688 214.723 13.8561 214.568 14.2324C214.413 14.6087 214.203 14.9518 213.937 15.2617C213.671 15.5495 213.361 15.793 213.007 15.9922C212.653 16.1693 212.277 16.2578 211.878 16.2578C211.059 16.2578 210.395 15.9701 209.886 15.3945C209.399 14.819 209.156 14.1439 209.156 13.3691V13.2363C209.045 13.2142 208.923 13.2917 208.791 13.4688C208.68 13.6237 208.558 13.8118 208.425 14.0332C208.315 14.2546 208.204 14.4759 208.093 14.6973C208.005 14.8965 207.938 15.0404 207.894 15.1289C209.222 15.8815 210.274 16.8887 211.048 18.1504C211.845 19.39 212.244 20.7734 212.244 22.3008C212.244 23.4961 211.989 24.6139 211.48 25.6543C210.993 26.6947 210.329 27.6022 209.488 28.377C208.669 29.1296 207.717 29.7272 206.632 30.1699C205.548 30.5905 204.419 30.8008 203.246 30.8008C202.803 30.8008 202.36 30.7897 201.917 30.7676C201.475 30.7233 201.032 30.6458 200.589 30.5352C200.279 30.7344 200.125 30.9668 200.125 31.2324C200.125 31.498 200.335 31.6973 200.755 31.8301C201.198 31.985 201.685 32.0957 202.216 32.1621C202.77 32.2285 203.301 32.2728 203.81 32.2949C204.341 32.3171 204.695 32.3281 204.873 32.3281C206.068 32.3945 207.23 32.6048 208.359 32.959C209.488 33.3132 210.484 33.8223 211.347 34.4863C212.233 35.1725 212.93 36.0137 213.439 37.0098C213.97 38.0059 214.236 39.168 214.236 40.4961C214.236 41.8906 213.882 43.0638 213.173 44.0156C212.465 44.9674 211.569 45.7311 210.484 46.3066C209.421 46.8822 208.248 47.2917 206.964 47.5352C205.703 47.8008 204.507 47.9336 203.378 47.9336C202.227 47.9336 201.01 47.8008 199.726 47.5352C198.464 47.2917 197.291 46.8822 196.207 46.3066C195.144 45.7311 194.259 44.9674 193.55 44.0156C192.842 43.0638 192.488 41.8906 192.488 40.4961C192.488 39.1016 192.875 37.9505 193.65 37.043C194.425 36.1354 195.399 35.3717 196.572 34.752C195.996 34.5085 195.498 34.1875 195.078 33.7891C194.657 33.3906 194.447 32.8594 194.447 32.1953C194.447 31.7969 194.524 31.4316 194.679 31.0996C194.856 30.7897 195.078 30.5241 195.343 30.3027C195.631 30.0592 195.941 29.86 196.273 29.7051C196.627 29.528 196.97 29.3841 197.302 29.2734C196.107 28.4987 195.144 27.5137 194.414 26.3184C193.683 25.1009 193.318 23.7617 193.318 22.3008C193.318 21.0391 193.583 19.888 194.115 18.8477C194.646 17.7852 195.354 16.8776 196.24 16.125C197.125 15.3724 198.132 14.7858 199.261 14.3652C200.412 13.9447 201.585 13.7344 202.781 13.7344C203.578 13.7344 204.397 13.834 205.238 14.0332C205.481 13.502 205.769 12.9818 206.101 12.4727C206.433 11.9414 206.809 11.4655 207.23 11.0449C207.651 10.6243 208.126 10.2812 208.658 10.0156C209.189 9.75 209.776 9.61719 210.417 9.61719C210.904 9.61719 211.403 9.69466 211.912 9.84961C212.443 10.0046 212.919 10.237 213.339 10.5469C213.76 10.8346 214.103 11.1888 214.369 11.6094C214.656 12.0299 214.8 12.5169 214.8 13.0703ZM207.197 22.3008C207.197 21.681 207.108 21.0169 206.931 20.3086C206.754 19.5781 206.477 18.9141 206.101 18.3164C205.747 17.7188 205.293 17.2207 204.74 16.8223C204.186 16.4238 203.533 16.2246 202.781 16.2246C202.028 16.2246 201.375 16.4238 200.822 16.8223C200.268 17.2207 199.804 17.7188 199.427 18.3164C199.051 18.9141 198.763 19.5671 198.564 20.2754C198.387 20.9837 198.298 21.6589 198.298 22.3008C198.298 22.9427 198.387 23.6289 198.564 24.3594C198.763 25.0677 199.04 25.7207 199.394 26.3184C199.77 26.916 200.235 27.4141 200.789 27.8125C201.364 28.2109 202.028 28.4102 202.781 28.4102C203.533 28.4102 204.186 28.2109 204.74 27.8125C205.293 27.4141 205.747 26.916 206.101 26.3184C206.477 25.6986 206.754 25.0345 206.931 24.3262C207.108 23.6178 207.197 22.9427 207.197 22.3008ZM209.056 40.4961C209.056 39.6771 208.901 38.9688 208.591 38.3711C208.281 37.7734 207.861 37.2754 207.33 36.877C206.798 36.4785 206.19 36.1797 205.503 35.9805C204.817 35.8034 204.109 35.7148 203.378 35.7148C202.648 35.7148 201.94 35.8034 201.253 35.9805C200.567 36.1797 199.958 36.4785 199.427 36.877C198.918 37.2754 198.509 37.7734 198.199 38.3711C197.889 38.9688 197.734 39.6771 197.734 40.4961C197.734 41.3151 197.889 42.0234 198.199 42.6211C198.509 43.2188 198.918 43.7057 199.427 44.082C199.958 44.4805 200.567 44.7682 201.253 44.9453C201.94 45.1445 202.648 45.2441 203.378 45.2441C204.109 45.2441 204.817 45.1445 205.503 44.9453C206.19 44.7682 206.798 44.4805 207.33 44.082C207.861 43.7057 208.281 43.2188 208.591 42.6211C208.901 42.0234 209.056 41.3151 209.056 40.4961Z"
        fill="black" />
    <path
        d="M115.261 68.4075L96.4016 68.0422L101.681 65.5852L101.648 52.0051L94.3762 66.6809L86.4407 52.8684L86.9387 66.2493L96.6008 69.1047H74.886L83.6848 66.2825L82.2903 47.3899L74.6867 44.1028L88.9973 44.2356L95.2727 56.9524L102.644 43.5715L115.128 44.0364L108.322 46.759L107.392 65.6184L115.261 68.4075ZM135.468 62.1985C135.468 62.3534 135.457 62.5084 135.435 62.6633C135.435 62.8183 135.435 62.9732 135.435 63.1282L121.922 63.3938C122.209 64.6998 122.862 65.6627 123.88 66.2825C124.899 66.9023 126.05 67.2122 127.334 67.2122C127.953 67.2122 128.584 67.1679 129.226 67.0793C129.868 66.9908 130.499 66.8469 131.119 66.6477C131.739 66.4485 132.325 66.1939 132.879 65.884C133.432 65.552 133.93 65.1646 134.373 64.7219C134.129 65.6516 133.72 66.4706 133.144 67.179C132.569 67.8873 131.882 68.4739 131.086 68.9387C130.311 69.4036 129.459 69.7467 128.529 69.968C127.621 70.2115 126.714 70.3333 125.806 70.3333C124.567 70.3333 123.382 70.1119 122.254 69.6692C121.147 69.2265 120.173 68.6178 119.332 67.843C118.513 67.0683 117.86 66.1386 117.373 65.054C116.886 63.9693 116.642 62.7851 116.642 61.5012C116.642 60.151 116.919 58.9224 117.472 57.8157C118.026 56.7089 118.756 55.7681 119.664 54.9934C120.571 54.1965 121.623 53.5878 122.818 53.1672C124.013 52.7467 125.264 52.5364 126.57 52.5364C127.942 52.5364 129.171 52.7909 130.255 53.3C131.362 53.8092 132.303 54.5064 133.078 55.3918C133.853 56.2773 134.439 57.3066 134.838 58.4797C135.258 59.6308 135.468 60.8704 135.468 62.1985ZM130.388 60.5051C130.344 59.9075 130.222 59.3319 130.023 58.7786C129.824 58.2252 129.547 57.7382 129.193 57.3176C128.839 56.8971 128.407 56.565 127.898 56.3215C127.411 56.0559 126.836 55.9231 126.172 55.9231C125.507 55.9231 124.932 56.0448 124.445 56.2883C123.958 56.5318 123.548 56.8639 123.216 57.2844C122.884 57.6829 122.608 58.1588 122.386 58.7122C122.187 59.2434 122.032 59.7968 121.922 60.3723L130.388 60.5051ZM160.424 62.1985C160.424 62.3534 160.413 62.5084 160.391 62.6633C160.391 62.8183 160.391 62.9732 160.391 63.1282L146.877 63.3938C147.165 64.6998 147.818 65.6627 148.836 66.2825C149.854 66.9023 151.005 67.2122 152.289 67.2122C152.909 67.2122 153.54 67.1679 154.182 67.0793C154.824 66.9908 155.454 66.8469 156.074 66.6477C156.694 66.4485 157.281 66.1939 157.834 65.884C158.387 65.552 158.885 65.1646 159.328 64.7219C159.085 65.6516 158.675 66.4706 158.1 67.179C157.524 67.8873 156.838 68.4739 156.041 68.9387C155.266 69.4036 154.414 69.7467 153.484 69.968C152.577 70.2115 151.669 70.3333 150.762 70.3333C149.522 70.3333 148.338 70.1119 147.209 69.6692C146.102 69.2265 145.128 68.6178 144.287 67.843C143.468 67.0683 142.815 66.1386 142.328 65.054C141.841 63.9693 141.598 62.7851 141.598 61.5012C141.598 60.151 141.874 58.9224 142.428 57.8157C142.981 56.7089 143.712 55.7681 144.619 54.9934C145.527 54.1965 146.578 53.5878 147.773 53.1672C148.969 52.7467 150.219 52.5364 151.525 52.5364C152.898 52.5364 154.126 52.7909 155.211 53.3C156.318 53.8092 157.258 54.5064 158.033 55.3918C158.808 56.2773 159.395 57.3066 159.793 58.4797C160.214 59.6308 160.424 60.8704 160.424 62.1985ZM155.344 60.5051C155.3 59.9075 155.178 59.3319 154.979 58.7786C154.779 58.2252 154.503 57.7382 154.148 57.3176C153.794 56.8971 153.363 56.565 152.854 56.3215C152.367 56.0559 151.791 55.9231 151.127 55.9231C150.463 55.9231 149.887 56.0448 149.4 56.2883C148.913 56.5318 148.504 56.8639 148.172 57.2844C147.84 57.6829 147.563 58.1588 147.342 58.7122C147.143 59.2434 146.988 59.7968 146.877 60.3723L155.344 60.5051ZM180.067 46.7922L179.768 49.9133C178.683 49.8248 177.61 49.7473 176.547 49.6809C175.485 49.5924 174.411 49.4928 173.327 49.3821C173.15 51.4849 172.961 53.5767 172.762 55.6575C172.563 57.7382 172.364 59.83 172.164 61.9329C172.164 62.0435 172.153 62.1542 172.131 62.2649C172.109 62.3756 172.098 62.4862 172.098 62.5969C172.098 62.9068 172.131 63.2278 172.198 63.5598C172.264 63.8697 172.375 64.1575 172.53 64.4231C172.685 64.6666 172.884 64.8769 173.127 65.054C173.393 65.2089 173.714 65.2864 174.09 65.2864C174.821 65.2864 175.463 65.1204 176.016 64.7883C176.569 64.4342 177.034 63.9915 177.411 63.4602C177.787 62.929 178.086 62.3424 178.307 61.7004C178.528 61.0364 178.672 60.3834 178.739 59.7415C179.004 60.7818 179.137 61.8111 179.137 62.8293C179.137 63.8033 178.982 64.6887 178.672 65.4856C178.362 66.2603 177.931 66.9355 177.377 67.511C176.824 68.0644 176.16 68.496 175.385 68.8059C174.61 69.1158 173.758 69.2708 172.829 69.2708C171.855 69.2708 171.002 69.1047 170.272 68.7727C169.541 68.4407 168.933 67.9869 168.446 67.4114C167.981 66.8137 167.627 66.1165 167.383 65.3196C167.162 64.5227 167.051 63.6705 167.051 62.7629C167.051 62.5859 167.051 62.4198 167.051 62.2649C167.051 62.1099 167.062 61.9439 167.084 61.7668C167.261 59.6197 167.428 57.5058 167.582 55.425C167.76 53.3222 167.914 51.1972 168.047 49.05C167.45 49.0058 166.852 48.9615 166.254 48.9172C165.679 48.8508 165.092 48.7844 164.495 48.718L164.627 46.095C165.092 46.0728 165.579 45.9954 166.088 45.8625C166.597 45.7297 167.084 45.5527 167.549 45.3313C168.036 45.1099 168.479 44.8443 168.877 44.5344C169.298 44.2245 169.641 43.8704 169.907 43.4719C170.15 43.0735 170.372 42.6418 170.571 42.177C170.792 41.7122 170.98 41.2252 171.135 40.7161C171.312 40.2069 171.456 39.7089 171.567 39.2219C171.678 38.7128 171.755 38.2258 171.799 37.761L174.522 37.8274L173.659 46.1282L180.067 46.7922Z"
        fill="black" />
    <path
        d="M209.821 56.8196L191.426 68.4739L191.094 65.7844L201.122 57.7493L189.6 51.7727L191.227 45.8293L209.821 56.8196Z"
        fill="#03FA6E" />
    <path d="M51.9852 4.23828L33.7899 33.623L29.5067 31.0664L46.9383 0.951172L51.9852 4.23828Z"
        fill="#03FA6E" />
    <path
        d="M21.0448 14.5312L9.55655 20.5078L19.6503 28.543L19.1855 31.1992L0.824125 19.5781L19.4511 8.58789L21.0448 14.5312Z"
        fill="#03FA6E" />
</svg>
