<svg width="48" height="48" viewBox="0 0 48 48" fill="none" xmlns="http://www.w3.org/2000/svg">
<g clip-path="url(#clip0_4591_113)">
<path d="M42.9548 11.1656L42.9071 11.1463L42.7969 11.123C42.8412 11.1489 42.8967 11.1639 42.9548 11.1656Z" fill="#0D0C22"/>
<path d="M42.9772 11.1595C42.9704 11.1589 42.9638 11.1578 42.9573 11.1562C42.9569 11.1593 42.9569 11.1624 42.9573 11.1654C42.9646 11.1647 42.9715 11.1627 42.9772 11.1595Z" fill="#0D0C22"/>
<path d="M42.957 11.1652H42.9641V11.1621L42.957 11.1652Z" fill="#0D0C22"/>
<path d="M43.6094 14.5887L43.6897 14.557L43.7197 14.5454L43.7467 14.5254C43.6958 14.5406 43.6493 14.562 43.6094 14.5887Z" fill="#0D0C22"/>
<path d="M43.0966 11.2396L43.0181 11.188L42.9648 11.168C42.9935 11.2029 43.0408 11.2286 43.0966 11.2396Z" fill="#0D0C22"/>
<path d="M23.3512 44.5156C23.2885 44.5344 23.2335 44.5637 23.1914 44.6008L23.2409 44.579C23.2746 44.5577 23.3222 44.5325 23.3512 44.5156Z" fill="#0D0C22"/>
<path d="M34.8165 42.9572C34.8165 42.9084 34.782 42.9174 34.7904 43.0916C34.7904 43.0777 34.7988 43.0634 34.8025 43.0499C34.8072 43.0188 34.8109 42.9884 34.8165 42.9572Z" fill="#0D0C22"/>
<path d="M33.6246 44.5156C33.5619 44.5344 33.507 44.5637 33.4648 44.6008L33.5144 44.579C33.548 44.5577 33.5957 44.5325 33.6246 44.5156Z" fill="#0D0C22"/>
<path d="M15.2736 44.8865C15.226 44.8579 15.1677 44.8392 15.1055 44.832C15.1559 44.8489 15.2064 44.8658 15.24 44.8786L15.2736 44.8865Z" fill="#0D0C22"/>
<path d="M13.457 43.6835C13.4495 43.6329 13.427 43.5837 13.3906 43.5391C13.4164 43.5852 13.4379 43.6329 13.4551 43.6809L13.457 43.6835Z" fill="#0D0C22"/>
<path d="M25.6639 22.1735C23.1694 22.9116 20.3385 23.7485 16.6695 23.7485C15.1347 23.7464 13.6073 23.6009 12.1289 23.3159L14.6664 41.3226C14.7563 42.0751 15.2523 42.7769 16.0561 43.2884C16.8599 43.8 17.9126 44.0837 19.0052 44.0837C19.0052 44.0837 22.6032 44.2128 23.8038 44.2128C25.0959 44.2128 28.9703 44.0837 28.9703 44.0837C30.0628 44.0837 31.1153 43.7996 31.9189 43.2881C32.7225 42.7765 33.2184 42.0751 33.3083 41.3226L36.0261 21.4245C34.8115 21.1378 33.5857 20.9473 32.2039 20.9473C29.814 20.9466 27.8884 21.5155 25.6639 22.1735Z" fill="#FFDD00"/>
<path d="M4.27344 14.4922L4.31641 14.52L4.34444 14.5316C4.32286 14.5168 4.29906 14.5036 4.27344 14.4922Z" fill="#0D0C22"/>
<path d="M47.7593 12.8294L47.3772 11.4972C47.0343 10.3019 46.256 9.1725 44.4809 8.7405C43.9119 8.60228 43.2663 8.54291 42.83 8.25683C42.3937 7.97078 42.2648 7.52651 42.1639 7.11451C41.977 6.35833 41.8014 5.60151 41.6098 4.84665C41.4445 4.19765 41.3137 3.46862 40.883 2.87324C40.3224 2.07381 39.1592 1.60629 38.0025 1.29698C37.4099 1.14406 36.805 1.0147 36.191 0.909531C33.3012 0.3826 30.2629 0.188876 27.29 0.0784539C23.7217 -0.0576364 20.1439 -0.0166343 16.584 0.201145C13.9344 0.367748 11.1437 0.569222 8.62577 1.2027C7.70552 1.43452 6.75719 1.71283 6.05745 2.20425C5.19881 2.80802 4.91853 3.74177 5.54541 4.4947C5.99109 5.02938 6.74601 5.40715 7.5467 5.65706C8.58961 5.97906 9.67879 6.22409 10.7961 6.38805C13.9073 6.86332 17.1296 7.04992 20.3081 7.12937C23.831 7.22762 27.3595 7.14798 30.8655 6.89106C31.7326 6.82519 32.598 6.7462 33.4619 6.6541C34.4794 6.54624 35.1324 5.6267 34.8325 4.98611C34.4737 4.22028 33.5095 3.92324 32.4193 4.03883C32.2585 4.05624 32.0988 4.07238 31.9381 4.08852L31.8223 4.10015C31.4529 4.13247 31.0835 4.16256 30.7142 4.19056C29.9512 4.24738 29.1863 4.29388 28.4196 4.33006C26.7023 4.4127 24.9805 4.45079 23.2595 4.45274C21.5685 4.45274 19.8765 4.41979 18.1891 4.34297C17.4193 4.3081 16.6513 4.26374 15.8852 4.20993C15.5367 4.18474 15.1891 4.15829 14.8416 4.12856L14.5108 4.09952L14.4389 4.09242L14.096 4.0582C13.3953 3.9852 12.6946 3.90129 12.0014 3.79988C11.9314 3.78915 11.8688 3.76228 11.824 3.72363C11.7791 3.68501 11.7547 3.63696 11.7547 3.58744C11.7547 3.53791 11.7791 3.48987 11.824 3.45124C11.8688 3.41261 11.9314 3.38572 12.0014 3.37499H12.0144C12.6152 3.28652 13.2206 3.21097 13.8279 3.1451C14.0303 3.12315 14.2334 3.10162 14.437 3.08053H14.4426C14.8229 3.06309 15.205 3.01595 15.5834 2.98495C18.8755 2.74828 22.1872 2.66759 25.4953 2.74345C27.1013 2.77574 28.7064 2.84095 30.3049 2.95331C30.6488 2.97785 30.9907 3.00369 31.3327 3.03274C31.4635 3.04372 31.5952 3.05663 31.727 3.06761L31.9923 3.09409C32.7659 3.17373 33.5354 3.27038 34.3009 3.38403C35.4351 3.55451 36.8917 3.61004 37.3962 4.46888C37.5569 4.74138 37.6298 5.04424 37.7185 5.33029L37.8315 5.69515C37.8345 5.70168 37.8367 5.7084 37.8381 5.71515C38.1053 6.57615 38.3728 7.43715 38.6407 8.29815C38.6603 8.36176 38.6607 8.42747 38.642 8.4912C38.6233 8.55496 38.5858 8.61531 38.5317 8.6686C38.4778 8.72185 38.4084 8.76685 38.3282 8.80078C38.2479 8.8347 38.1584 8.85681 38.0651 8.86578H38.0576L37.8942 8.88128L37.7326 8.8961C37.2205 8.94219 36.7079 8.98523 36.1947 9.02528C35.1838 9.10491 34.1713 9.17378 33.1574 9.23191C31.1424 9.34769 29.1234 9.42369 27.1003 9.45987C26.0695 9.47878 25.039 9.48764 24.0088 9.48632C19.9082 9.48411 15.8112 9.31936 11.7379 8.99296C11.2969 8.95682 10.8559 8.91805 10.4149 8.87869C10.7569 8.90905 10.1664 8.85542 10.0468 8.84382C9.76653 8.81669 9.48624 8.7885 9.20595 8.75923C8.26512 8.66169 7.32994 8.5416 6.39095 8.43633C5.2558 8.30719 4.17016 8.37178 3.14338 8.75923C2.30055 9.078 1.6184 9.56682 1.18792 10.1605C0.74507 10.7933 0.613336 11.4823 0.415268 12.1623C0.217199 12.8423 -0.0911159 13.5739 0.0256697 14.2719C0.276993 15.7785 1.80081 17.0028 3.99265 17.2766C6.05462 17.5349 8.1278 17.7441 10.2066 17.9224C18.3725 18.6136 26.6223 18.6963 34.8138 18.169C35.4809 18.126 36.147 18.0791 36.8123 18.0283C37.0201 18.0125 37.2303 18.029 37.4276 18.0767C37.6249 18.1243 37.8043 18.2019 37.9527 18.3037C38.101 18.4055 38.2145 18.5289 38.2849 18.6649C38.3553 18.801 38.3808 18.9462 38.3594 19.0899L38.152 20.4834C37.7341 23.2993 37.3161 26.1149 36.8982 28.9304C36.4622 31.887 36.0234 34.8435 35.5818 37.7995C35.4572 38.6323 35.3327 39.4647 35.2081 40.2967C35.0885 41.1164 35.0717 41.9615 34.8465 42.7714C34.4915 44.0448 33.2442 44.8269 31.4243 45.1129C29.7568 45.3752 28.0535 45.5129 26.3436 45.5234C24.4479 45.5306 22.5532 45.4724 20.6575 45.4795C18.6338 45.4874 16.1552 45.3583 14.5931 44.3172C13.2206 43.403 13.0309 41.9713 12.8441 40.7332C12.5949 39.0943 12.348 37.4557 12.1032 35.8173L10.7298 26.7064L9.8413 20.8114C9.82632 20.7139 9.81138 20.6177 9.79737 20.5195C9.69084 19.8163 8.97052 19.128 7.83535 19.1635C6.86373 19.1932 5.7594 19.764 5.87338 20.5195L6.53202 24.89L7.89421 33.9304C8.28228 36.4983 8.66937 39.0665 9.05555 41.6354C9.13032 42.1274 9.20036 42.6209 9.27882 43.1129C9.70583 45.8019 12.6768 47.2509 16.3561 47.6589C18.5049 47.8979 20.7061 47.9471 22.8867 47.9715C25.6821 48.0026 28.5055 48.0769 31.2551 47.7268C35.3296 47.21 38.3865 45.3298 38.8228 42.413C38.9474 41.5709 39.072 40.7287 39.1966 39.8862C39.6107 37.0999 40.0243 34.3135 40.4373 31.5269L41.7883 22.4219L42.4077 18.2491C42.4386 18.0422 42.565 17.8476 42.7683 17.6942C42.9715 17.5409 43.2408 17.4368 43.5363 17.3974C44.7014 17.2404 45.8151 16.9724 46.6438 16.3596C47.963 15.3839 48.2255 14.1118 47.7593 12.8294ZM3.93286 13.7295C3.95061 13.7237 3.91791 13.829 3.90389 13.878C3.90109 13.8038 3.90669 13.7379 3.93286 13.7295ZM4.04591 14.3339C4.05525 14.3294 4.08327 14.3553 4.11224 14.3863C4.06833 14.3578 4.0403 14.3365 4.04497 14.3339H4.04591ZM4.15709 14.4353C4.21875 14.5122 4.19726 14.4825 4.15709 14.4353ZM4.38038 14.5606H4.38598C4.38598 14.5651 4.39626 14.5696 4.4 14.5742C4.3938 14.5692 4.38692 14.5646 4.37945 14.5606H4.38038ZM43.4821 14.3733C43.0636 14.6484 42.4329 14.7763 41.8097 14.8402C34.8213 15.557 27.731 15.9199 20.6659 15.7598C15.6096 15.6403 10.6065 15.2522 5.60058 14.7634C5.11006 14.7156 4.57844 14.6536 4.24117 14.4037C3.60585 13.9323 3.91791 12.983 4.08327 12.4135C4.23463 11.8917 4.52426 11.1963 5.42211 11.122C6.82355 11.0084 8.45104 11.4171 9.83756 11.5624C11.5068 11.7385 13.1823 11.8795 14.864 11.9854C22.0412 12.4374 29.3389 12.367 36.4843 11.7058C37.7867 11.5848 39.0844 11.4442 40.3775 11.2841C41.5295 11.1414 42.8067 10.8734 43.5027 11.698C43.9801 12.2598 44.0436 13.0115 43.9698 13.6462C43.9471 13.9228 43.7723 14.1829 43.4812 14.3733H43.4821Z" fill="#0D0C22"/>
</g>
<defs>
<clipPath id="clip0_4591_113">
<rect width="48" height="48" fill="white"/>
</clipPath>
</defs>
</svg>
