<svg width="48" height="48" viewBox="0 0 48 48" fill="none" xmlns="http://www.w3.org/2000/svg">
<g clip-path="url(#clip0_4631_2)">
<path d="M38.2161 14.3737L38.1803 14.3592L38.0977 14.3418C38.1309 14.3612 38.1725 14.3724 38.2161 14.3737Z" fill="#0D0C22"/>
<path d="M38.2339 14.3694C38.2288 14.369 38.2238 14.3682 38.219 14.3672C38.2187 14.3692 38.2187 14.3713 38.219 14.3733C38.2244 14.3728 38.2296 14.3715 38.2339 14.3694Z" fill="#0D0C22"/>
<path d="M38.2188 14.3751H38.2235V14.373L38.2188 14.3751Z" fill="#0D0C22"/>
<path d="M38.707 16.942L38.7673 16.9183L38.7897 16.9095L38.8101 16.8945C38.7718 16.9059 38.737 16.922 38.707 16.942Z" fill="#0D0C22"/>
<path d="M38.3215 14.4307L38.2626 14.392L38.2227 14.377C38.2441 14.4031 38.2796 14.4224 38.3215 14.4307Z" fill="#0D0C22"/>
<path d="M23.5105 39.3867C23.4634 39.4008 23.4222 39.4227 23.3906 39.4506L23.4278 39.4343C23.453 39.4182 23.4887 39.3994 23.5105 39.3867Z" fill="#0D0C22"/>
<path d="M32.1105 38.2184C32.1105 38.1818 32.0846 38.1886 32.0908 38.3192C32.0908 38.3087 32.0971 38.2981 32.0999 38.2879C32.1034 38.2646 32.1063 38.2418 32.1105 38.2184Z" fill="#0D0C22"/>
<path d="M31.2214 39.3867C31.1743 39.4008 31.1332 39.4227 31.1016 39.4506L31.1387 39.4343C31.1639 39.4182 31.1997 39.3994 31.2214 39.3867Z" fill="#0D0C22"/>
<path d="M17.4542 39.6658C17.4185 39.6444 17.3748 39.6303 17.3281 39.625C17.366 39.6377 17.4038 39.6503 17.429 39.6599L17.4542 39.6658Z" fill="#0D0C22"/>
<path d="M16.0927 38.7627C16.0872 38.7247 16.0702 38.6878 16.043 38.6543C16.0623 38.6889 16.0784 38.7247 16.0913 38.7607L16.0927 38.7627Z" fill="#0D0C22"/>
<path d="M25.2489 22.6306C23.378 23.1842 21.2548 23.8119 18.5031 23.8119C17.352 23.8103 16.2064 23.7011 15.0977 23.4874L17.0008 36.9925C17.0682 37.5568 17.4402 38.0832 18.0431 38.4668C18.6459 38.8505 19.4355 39.0632 20.2549 39.0632C20.2549 39.0632 22.9534 39.1601 23.8538 39.1601C24.8229 39.1601 27.7287 39.0632 27.7287 39.0632C28.5481 39.0632 29.3374 38.8502 29.9402 38.4665C30.5429 38.0829 30.9148 37.5568 30.9822 36.9925L33.0205 22.0688C32.1096 21.8538 31.1903 21.7109 30.1539 21.7109C28.3615 21.7105 26.9173 22.1371 25.2489 22.6306Z" fill="#FFDD00"/>
<path d="M9.20312 16.8691L9.23535 16.89L9.25638 16.8987C9.24019 16.8876 9.22234 16.8777 9.20312 16.8691Z" fill="#0D0C22"/>
<path d="M41.8394 15.622L41.5527 14.6229C41.2954 13.7264 40.7114 12.8794 39.3793 12.5554C38.9523 12.4517 38.4678 12.4072 38.1404 12.1926C37.813 11.9781 37.7162 11.6449 37.6405 11.3359C37.5003 10.7687 37.3685 10.2011 37.2247 9.63498C37.1007 9.14823 37.0025 8.60146 36.6793 8.15493C36.2586 7.55535 35.3858 7.20471 34.5178 6.97273C34.073 6.85804 33.6192 6.76102 33.1584 6.68215C30.9898 6.28695 28.7098 6.14166 26.4789 6.05884C23.8012 5.95677 21.1163 5.98752 18.4449 6.15086C16.4566 6.27581 14.3624 6.42692 12.4729 6.90202C11.7824 7.07589 11.0707 7.28462 10.5456 7.65318C9.90128 8.10601 9.69095 8.80632 10.1614 9.37102C10.4958 9.77203 11.0623 10.0554 11.6632 10.2428C12.4458 10.4843 13.2631 10.6681 14.1016 10.791C16.4363 11.1475 18.8544 11.2874 21.2395 11.347C23.8832 11.4207 26.531 11.361 29.162 11.1683C29.8127 11.1189 30.4621 11.0596 31.1104 10.9906C31.8739 10.9097 32.364 10.22 32.139 9.73957C31.8697 9.16521 31.1462 8.94242 30.328 9.02912C30.2074 9.04218 30.0875 9.05428 29.9669 9.06638L29.88 9.07511C29.6028 9.09934 29.3256 9.12192 29.0485 9.14291C28.4759 9.18553 27.9019 9.2204 27.3266 9.24754C26.0379 9.30952 24.7458 9.33809 23.4544 9.33955C22.1854 9.33955 20.9156 9.31484 19.6494 9.25722C19.0717 9.23107 18.4954 9.1978 17.9205 9.15744C17.659 9.13855 17.3982 9.11871 17.1374 9.09642L16.8892 9.07463L16.8352 9.06931L16.5779 9.04364C16.0521 8.98889 15.5262 8.92596 15.006 8.84991C14.9536 8.84186 14.9066 8.8217 14.8729 8.79272C14.8393 8.76375 14.8209 8.72772 14.8209 8.69057C14.8209 8.65343 14.8393 8.61739 14.8729 8.58843C14.9066 8.55945 14.9536 8.53928 15.006 8.53123H15.0159C15.4667 8.46489 15.921 8.40822 16.3767 8.35882C16.5286 8.34235 16.681 8.32621 16.8338 8.31039H16.838C17.1234 8.29731 17.4101 8.26196 17.6941 8.23871C20.1645 8.06121 22.6497 8.00069 25.1321 8.05758C26.3373 8.0818 27.5418 8.13071 28.7414 8.21498C28.9994 8.23339 29.256 8.25276 29.5126 8.27455C29.6107 8.28279 29.7096 8.29247 29.8085 8.3007L30.0076 8.32056C30.5881 8.38029 31.1656 8.45278 31.74 8.53802C32.5912 8.66588 33.6842 8.70752 34.0628 9.35165C34.1834 9.55603 34.2381 9.78317 34.3046 9.99771L34.3895 10.2714C34.3917 10.2763 34.3933 10.2813 34.3944 10.2864C34.5949 10.9321 34.7957 11.5778 34.9966 12.2236C35.0114 12.2713 35.0117 12.3206 34.9977 12.3684C34.9836 12.4162 34.9554 12.4615 34.9149 12.5014C34.8744 12.5414 34.8224 12.5751 34.7621 12.6006C34.7019 12.626 34.6347 12.6426 34.5648 12.6493H34.5591L34.4365 12.6609L34.3152 12.6721C33.9309 12.7066 33.5463 12.7389 33.1612 12.7689C32.4025 12.8287 31.6428 12.8803 30.8819 12.9239C29.3698 13.0108 27.8547 13.0678 26.3366 13.0949C25.563 13.1091 24.7897 13.1157 24.0166 13.1147C20.9395 13.1131 17.865 12.9895 14.8083 12.7447C14.4774 12.7176 14.1465 12.6885 13.8155 12.659C14.0722 12.6818 13.629 12.6416 13.5393 12.6329C13.329 12.6125 13.1186 12.5914 12.9083 12.5694C12.2023 12.4963 11.5005 12.4062 10.7959 12.3272C9.94405 12.2304 9.12936 12.2788 8.35885 12.5694C7.72638 12.8085 7.21447 13.1751 6.89144 13.6204C6.55911 14.095 6.46026 14.6117 6.31162 15.1217C6.16299 15.6317 5.93163 16.1804 6.01926 16.7039C6.20786 17.8338 7.35136 18.7521 8.99616 18.9574C10.5435 19.1511 12.0992 19.3081 13.6592 19.4417C19.7871 19.9602 25.9779 20.0222 32.1249 19.6267C32.6255 19.5945 33.1254 19.5593 33.6246 19.5212C33.7805 19.5093 33.9383 19.5217 34.0864 19.5575C34.2344 19.5932 34.3691 19.6514 34.4804 19.7277C34.5917 19.8041 34.6769 19.8966 34.7297 19.9987C34.7825 20.1007 34.8016 20.2096 34.7856 20.3174L34.63 21.3625C34.3163 23.4744 34.0027 25.5862 33.6891 27.6977C33.3619 29.9152 33.0326 32.1326 32.7012 34.3496C32.6077 34.9742 32.5143 35.5985 32.4208 36.2225C32.331 36.8372 32.3184 37.4711 32.1495 38.0785C31.883 39.0335 30.9471 39.6201 29.5813 39.8346C28.3301 40.0313 27.0519 40.1346 25.7687 40.1425C24.3461 40.1479 22.9243 40.1042 21.5018 40.1096C19.9832 40.1155 18.1232 40.0187 16.9509 39.2379C15.921 38.5522 15.7786 37.4784 15.6384 36.5498C15.4515 35.3207 15.2662 34.0917 15.0824 32.8629L14.0518 26.0298L13.3851 21.6085C13.3738 21.5354 13.3626 21.4633 13.3521 21.3896C13.2722 20.8622 12.7316 20.346 11.8798 20.3726C11.1507 20.3948 10.322 20.823 10.4075 21.3896L10.9017 24.6674L11.924 31.4478C12.2152 33.3737 12.5057 35.2998 12.7954 37.2265C12.8516 37.5955 12.9041 37.9656 12.963 38.3346C13.2834 40.3514 15.5129 41.4381 18.2739 41.7441C19.8864 41.9234 21.5382 41.9602 23.1746 41.9785C25.2723 42.0019 27.3911 42.0576 29.4544 41.795C32.5119 41.4074 34.8059 39.9973 35.1333 37.8097C35.2269 37.1781 35.3203 36.5465 35.4138 35.9146C35.7246 33.8249 36.035 31.7351 36.3449 29.6451L37.3587 22.8164L37.8235 19.6868C37.8467 19.5316 37.9415 19.3857 38.0941 19.2707C38.2466 19.1556 38.4487 19.0775 38.6704 19.048C39.5447 18.9303 40.3805 18.7293 41.0023 18.2697C41.9923 17.5379 42.1893 16.5838 41.8394 15.622ZM8.95129 16.2971C8.96461 16.2928 8.94007 16.3717 8.92955 16.4085C8.92745 16.3528 8.93165 16.3034 8.95129 16.2971ZM9.03612 16.7504C9.04313 16.747 9.06416 16.7664 9.0859 16.7897C9.05294 16.7683 9.03192 16.7524 9.03542 16.7504H9.03612ZM9.11955 16.8265C9.16583 16.8841 9.1497 16.8618 9.11955 16.8265ZM9.28712 16.9204H9.29132C9.29132 16.9238 9.29903 16.9272 9.30184 16.9306C9.29719 16.9269 9.29203 16.9235 9.28641 16.9204H9.28712ZM38.6298 16.78C38.3157 16.9863 37.8424 17.0822 37.3748 17.1301C32.1305 17.6677 26.8099 17.9399 21.5081 17.8198C17.7137 17.7302 13.9593 17.4391 10.2028 17.0725C9.83468 17.0367 9.43575 16.9902 9.18265 16.8027C8.7059 16.4492 8.94007 15.7373 9.06416 15.3101C9.17774 14.9188 9.39509 14.3972 10.0688 14.3415C11.1205 14.2563 12.3418 14.5628 13.3823 14.6718C14.6349 14.8038 15.8922 14.9096 17.1542 14.989C22.5401 15.328 28.0164 15.2752 33.3785 14.7793C34.3558 14.6886 35.3297 14.5832 36.3 14.4631C37.1645 14.356 38.1229 14.155 38.6452 14.7735C39.0035 15.1948 39.0511 15.7586 38.9958 16.2346C38.9787 16.4421 38.8475 16.6371 38.6291 16.78H38.6298Z" fill="#0D0C22"/>
</g>
<defs>
<clipPath id="clip0_4631_2">
<rect width="36" height="36" fill="white" transform="translate(6 6)"/>
</clipPath>
</defs>
</svg>
